<?xml version="1.0" standalone="no"?>
<!DOCTYPE svg PUBLIC "-//W3C//DTD SVG 20010904//EN"
 "http://www.w3.org/TR/2001/REC-SVG-20010904/DTD/svg10.dtd">
<svg version="1.0" xmlns="http://www.w3.org/2000/svg"
 width="16.000000pt" height="16.000000pt" viewBox="0 0 16.000000 16.000000"
 preserveAspectRatio="xMidYMid meet">
<metadata>
Created by potrace 1.11, written by Peter Selinger 2001-2013
</metadata>
<g transform="translate(0.000000,16.000000) scale(0.003125,-0.003125)"
fill="#000000" stroke="none">
<path d="M2546 5035 c-10 -15 -16 -31 -13 -38 2 -6 11 4 20 22 21 42 16 51 -7
16z"/>
<path d="M2591 5000 c7 -19 18 -40 25 -46 8 -6 11 -14 8 -17 -3 -3 1 -18 10
-34 8 -15 26 -53 39 -83 14 -30 40 -89 59 -130 19 -41 50 -108 69 -149 38 -84
52 -95 199 -158 114 -49 201 -79 284 -98 33 -8 97 -22 140 -32 l80 -19 -98
-13 c-110 -14 -239 -57 -290 -96 -76 -58 -72 -121 13 -205 79 -78 169 -135
392 -247 l194 -97 -46 -7 c-82 -12 -269 -120 -343 -197 -30 -31 -39 -50 -43
-86 -8 -64 8 -91 94 -166 41 -36 82 -72 91 -81 36 -34 221 -158 307 -206 102
-56 271 -138 359 -173 53 -21 57 -25 35 -31 -13 -4 -60 -17 -104 -29 -275 -76
-387 -214 -373 -461 4 -63 11 -89 42 -150 72 -141 212 -283 447 -451 128 -92
139 -101 116 -94 -250 79 -768 128 -1038 98 -135 -15 -274 -136 -456 -399 -38
-54 -120 -214 -156 -303 -19 -47 -46 -110 -59 -140 l-25 -55 -17 40 c-10 22
-35 85 -56 141 -48 127 -99 227 -168 329 -117 173 -217 278 -333 350 l-64 40
-285 0 c-177 0 -319 -5 -375 -13 -106 -15 -372 -68 -412 -82 l-28 -10 29 23
c17 12 83 62 148 110 214 160 349 303 411 435 29 61 31 75 30 162 -2 234 -101
344 -387 431 l-108 33 38 18 c22 9 88 40 147 68 60 27 111 50 114 50 10 0 217
123 281 167 82 57 187 141 264 211 83 77 88 139 18 224 -57 69 -240 175 -335
193 l-60 12 189 92 c103 51 200 100 215 110 14 10 46 31 71 46 57 36 147 122
166 157 25 49 18 84 -27 128 -58 56 -177 97 -339 116 -36 4 -56 9 -45 12 78
15 315 78 384 103 81 29 232 99 260 123 8 6 25 36 39 66 24 56 39 88 112 245
23 50 50 109 61 133 11 23 17 47 14 51 -3 5 0 11 6 13 5 2 7 11 4 20 -6 15
-12 11 -39 -21 -50 -59 -132 -129 -184 -155 -87 -43 -137 -50 -258 -37 -110
12 -365 63 -417 83 -34 13 -42 5 -51 -55 -11 -66 -107 -264 -185 -381 -25 -39
-80 -106 -121 -149 l-75 -79 -80 -9 c-115 -12 -301 -27 -437 -35 -65 -3 -118
-10 -118 -13 0 -4 9 -17 21 -29 26 -29 97 -153 114 -201 7 -21 22 -57 33 -82
10 -24 29 -91 41 -149 12 -58 26 -118 31 -135 5 -16 12 -67 16 -112 l7 -81
-88 -65 c-115 -85 -247 -163 -490 -287 -110 -57 -202 -105 -205 -107 -6 -5
107 -114 274 -263 120 -107 256 -250 256 -269 0 -4 12 -21 26 -37 23 -26 25
-34 20 -89 -6 -58 -63 -252 -102 -345 -30 -72 -121 -244 -161 -307 -62 -94
-174 -239 -202 -260 -14 -10 -12 -13 12 -22 16 -6 35 -11 43 -11 19 0 302 -62
437 -96 287 -72 607 -175 797 -257 453 -195 707 -381 981 -720 31 -40 91 -131
113 -175 18 -36 33 -37 50 -6 102 184 316 424 511 571 205 156 470 293 780
405 264 95 741 223 1019 273 43 8 81 17 84 20 3 3 -10 22 -30 43 -76 80 -198
256 -261 377 -75 144 -138 312 -171 458 -20 84 -20 98 -1 122 8 11 35 47 60
81 49 67 260 275 382 378 72 60 130 123 121 131 -1 1 -88 46 -193 100 -285
146 -363 192 -512 302 -85 62 -85 64 -54 216 11 50 26 126 34 168 8 42 25 97
36 122 12 25 21 52 21 59 0 27 91 199 125 237 19 21 35 41 35 43 0 3 -60 9
-132 12 -151 8 -328 22 -438 35 l-74 9 -74 79 c-108 113 -224 299 -262 418 -7
22 -16 45 -20 50 -5 6 -16 36 -25 68 -17 59 -23 64 -53 47 -27 -15 -287 -68
-395 -81 -132 -15 -180 -9 -268 34 -68 34 -184 134 -234 202 -13 18 -14 17 -4
-15z"/>
</g>
</svg>
